<?xml version="1.0" encoding="UTF-8"?>
<svg id="Layer_1" data-name="Layer 1" xmlns="http://www.w3.org/2000/svg" viewBox="0 0 792 531.57">
  <defs>
    <style>
      .cls-1 {
        fill: #272525;
      }

      .cls-1, .cls-2 {
        stroke-width: 0px;
      }

      .cls-2 {
        fill: #fff;
      }
    </style>
  </defs>
  <g id="LOGO">
    <path class="cls-1" d="M157.45,531.57c-40.62,0-75.45-27.28-82.83-64.87L1.41,93.67C-3.15,70.45,3.44,46.72,19.49,28.57,35.54,10.41,59.14,0,84.24,0h623.53c25.09,0,48.69,10.41,64.74,28.57,16.05,18.15,22.64,41.88,18.08,65.11l-73.22,373.02c-7.37,37.59-42.2,64.87-82.82,64.87H157.45Z"/>
    <path class="cls-2" d="M634.55,515.11H157.45c-31.62,0-58.79-21.55-64.61-51.23L19.62,90.85c-3.49-17.8,1.21-36.16,12.92-50.39,12.55-15.26,31.4-24,51.69-24h623.53c20.3,0,39.14,8.75,51.69,24,11.7,14.23,16.41,32.6,12.92,50.39l-73.22,373.03c-5.83,29.68-33,51.23-64.61,51.23ZM84.23,34.92c-14.76,0-28.41,6.29-37.44,17.27-8.18,9.95-11.49,22.74-9.06,35.11l73.22,373.03c4.13,21.05,23.69,36.33,46.5,36.33h477.1c22.82,0,42.37-15.28,46.5-36.33l73.22-373.03c2.43-12.36-.88-25.16-9.06-35.11-9.03-10.97-22.68-17.27-37.44-17.27H84.23Z"/>
    <g id="TEALL">
      <path class="cls-2" d="M183.72,299.01h-53.18v-155.08h-24.07v-43.08h101.31v43.08h-24.07v155.08Z"/>
      <path class="cls-2" d="M271.95,299.01c-10.5,0-18.27-.19-23.32-.59-5.05-.4-9.31-1.34-12.77-2.83-3.47-1.48-6.29-3.91-8.47-7.28-3.17-4.75-5.3-11.63-6.39-20.65-1.09-9.01-1.64-22.33-1.64-39.96v-63.28c0-12.88.74-23.82,2.23-32.83,1.49-9.01,4.2-15.89,8.17-20.65,2.57-3.17,5.64-5.44,9.21-6.83,3.57-1.38,7.72-2.27,12.48-2.67,4.75-.4,11.59-.59,20.5-.59h49.61v43.08h-48.13c-.59,0-.89.3-.89.89v33.57h46.05v43.08h-46.05v33.57c0,.6.3.89.89.89h48.13v43.08h-49.61Z"/>
      <path class="cls-2" d="M448.87,103.37c8.42,1.68,14.21,5.25,17.38,10.7,3.17,5.45,4.75,14.51,4.75,27.18v157.76h-53.18v-41.89h-22.28v41.89h-53.18v-157.76c0-12.87,1.63-22.03,4.9-27.48,3.27-5.44,9.11-8.96,17.53-10.55,8.42-1.58,22.53-2.38,42.34-2.38s33.32.84,41.74,2.52ZM395.54,213.14h22.28v-52.29c0-6.34-.89-10.99-2.67-13.96-1.78-2.97-4.66-4.46-8.62-4.46s-6.53,1.54-8.32,4.61c-1.78,3.07-2.67,7.68-2.67,13.82v52.29Z"/>
      <path class="cls-2" d="M494.17,151.05c0-11.68-.25-21.39-.74-29.11-.5-7.73-1.24-14.75-2.23-21.09h60.91c-3.17,15.25-4.75,31.49-4.75,48.72v106.36l35.65-2.08-9.51,45.16h-79.32v-147.95Z"/>
      <path class="cls-2" d="M594.59,151.05c0-11.68-.25-21.39-.74-29.11-.5-7.73-1.24-14.75-2.23-21.09h60.91c-3.17,15.25-4.75,31.49-4.75,48.72v106.36l35.65-2.08-9.51,45.16h-79.32v-147.95Z"/>
    </g>
    <g id="DESIGN">
      <path class="cls-2" d="M192.54,431.9v-99.67h37.66c8.76,0,14.96.82,18.6,2.46,3.64,1.64,5.98,4.63,7.02,8.97,1.05,4.33,1.57,11.68,1.57,22.04v26.9c0,12.45-.42,21.09-1.27,25.92-.85,4.83-3.09,8.27-6.73,10.31-3.64,2.04-10.04,3.06-19.2,3.06h-37.66ZM224.07,409.93c1.89,0,3.29-.23,4.18-.67.9-.45,1.52-1.27,1.87-2.46.35-1.2.52-3.04.52-5.53v-38.55c0-2.59-.17-4.48-.52-5.68s-.97-2.02-1.87-2.46c-.89-.45-2.29-.67-4.18-.67h-4.78v56.04h4.78Z"/>
      <path class="cls-2" d="M299.38,431.9c-5.28,0-9.19-.1-11.73-.3-2.54-.2-4.68-.67-6.42-1.42-1.74-.75-3.16-1.96-4.26-3.66-1.6-2.39-2.67-5.85-3.21-10.38-.55-4.53-.82-11.23-.82-20.1v-31.83c0-6.47.37-11.98,1.12-16.51.75-4.53,2.12-7.99,4.11-10.39,1.29-1.59,2.84-2.74,4.63-3.44,1.79-.7,3.88-1.15,6.27-1.35s5.83-.3,10.31-.3h24.95v21.67h-24.2c-.3,0-.45.15-.45.45v16.89h23.16v21.67h-23.16v16.89c0,.3.15.45.45.45h24.2v21.67h-24.95Z"/>
      <path class="cls-2" d="M338.53,431.9v-21.67h24.51c.3,0,.45-.15.45-.45v-16.44c0-.3-.15-.45-.45-.45h-3.74c-6.08,0-10.61-.8-13.6-2.39-2.99-1.59-5.01-4.28-6.05-8.07-1.05-3.78-1.57-9.42-1.57-16.89v-6.13c0-8.37.67-14.4,2.02-18.08,1.35-3.68,3.84-6.13,7.47-7.32,3.64-1.2,9.54-1.79,17.7-1.79h23.01v21.67h-23.01c-.1,0-.2.05-.3.15s-.15.2-.15.3v16.44c0,.3.15.45.45.45h4.33c6.08,0,10.63.82,13.67,2.46,3.04,1.64,5.08,4.29,6.13,7.92,1.04,3.64,1.57,8.99,1.57,16.06v6.13c0,8.77-.65,15-1.94,18.68-1.3,3.69-3.74,6.13-7.32,7.32-3.59,1.19-9.71,1.89-18.38,2.09h-24.8Z"/>
      <path class="cls-2" d="M432.37,431.9h-26.75v-99.67h26.75v99.67Z"/>
      <path class="cls-2" d="M458,430.25c-3.93-1.09-6.42-3.76-7.47-7.99-1.04-4.24-1.57-12.58-1.57-25.03v-29.89c0-11.06.49-18.85,1.49-23.39.99-4.53,3.29-7.62,6.87-9.26,3.58-1.64,9.81-2.46,18.68-2.46h37.51v24.51c-2.19-.8-5.11-1.47-8.74-2.02-3.64-.55-7.2-.82-10.68-.82h-9.41c-2.89,0-4.93.17-6.13.52-1.2.35-1.97,1.12-2.32,2.32-.35,1.2-.52,3.29-.52,6.27v35.42c0,3.78.15,6.45.45,7.99.3,1.54.87,2.57,1.72,3.06.85.5,2.37.75,4.56.75h4.18c.1,0,.15-.1.15-.3v-23.76c0-1.89-.17-3.71-.52-5.45-.35-1.74-.87-3.66-1.57-5.75h28.84v34.82c0,7.57-.7,12.8-2.09,15.69-1.4,2.89-4.09,4.68-8.07,5.38-3.99.7-11.31,1.05-21.97,1.05-11.66,0-19.45-.55-23.39-1.64Z"/>
      <path class="cls-2" d="M531.14,354.94c0-4.88-.17-8.84-.52-11.88-.35-3.04-1.02-6.65-2.02-10.83h27.04c.8,3.09,1.37,5.43,1.72,7.02s.62,3.64.82,6.13c.9-3.49,2.02-6.18,3.36-8.07,1.35-1.89,3.16-3.21,5.45-3.96,2.29-.75,5.43-1.12,9.42-1.12,5.38,0,9.44.8,12.18,2.39,2.74,1.6,4.56,3.89,5.45,6.87.9,2.99,1.35,7.02,1.35,12.11v78.3h-26.75v-68.89c0-2.69-.4-4.68-1.2-5.98-.8-1.29-2.09-1.94-3.89-1.94-3.79,0-5.68,2.74-5.68,8.22v68.59h-26.75v-76.96Z"/>
    </g>
  </g>
</svg>